<svg width="22" height="22" viewBox="0 0 22 22" fill="none" xmlns="http://www.w3.org/2000/svg">
<path d="M6.91075 20.625C15.213 20.625 19.7546 13.7459 19.7546 7.79073C19.7546 7.59823 19.7546 7.40298 19.7464 7.21048C20.6306 6.57039 21.3937 5.77793 22 4.87023C21.1741 5.2344 20.2988 5.47441 19.4026 5.58248C20.3466 5.01823 21.0536 4.13043 21.3922 3.0841C20.5054 3.60952 19.5346 3.97837 18.5226 4.17448C17.8422 3.44988 16.9419 2.96986 15.9611 2.80877C14.9803 2.64767 13.9737 2.81449 13.0973 3.28339C12.2209 3.75229 11.5236 4.49709 11.1134 5.40243C10.7031 6.30778 10.6029 7.32313 10.8281 8.29123C9.03339 8.20123 7.27762 7.73499 5.67468 6.92275C4.07175 6.1105 2.65744 4.97039 1.5235 3.57635C0.947843 4.57059 0.772164 5.74665 1.03214 6.86572C1.29211 7.98478 1.96825 8.96296 2.92325 9.6016C2.20762 9.57729 1.50772 9.38512 0.88 9.0406V9.10248C0.881234 10.144 1.24205 11.1532 1.90145 11.9594C2.56086 12.7656 3.4784 13.3194 4.499 13.5272C4.11161 13.6339 3.71144 13.6871 3.30963 13.6854C3.02635 13.6862 2.74365 13.66 2.46537 13.607C2.75383 14.5036 3.3155 15.2875 4.07171 15.8489C4.82793 16.4103 5.74081 16.7211 6.6825 16.7379C5.08276 17.9943 3.10668 18.6758 1.0725 18.6725C0.714066 18.674 0.355882 18.6533 0 18.6106C2.06458 19.9268 4.46228 20.6257 6.91075 20.625V20.625Z" fill="black"/>
</svg>
