<svg width="20" height="20" viewBox="0 0 20 20" fill="none" xmlns="http://www.w3.org/2000/svg">
<g clip-path="url(#clip0)">
<path d="M4.56435 6.49802V19.9997H0.248349V6.49802H4.56435ZM4.83875 2.32969L4.84035 2.41136C4.84035 3.03552 4.58595 3.59719 4.17955 3.99052L4.17795 3.99136C3.93855 4.21943 3.65811 4.39579 3.35285 4.51022C3.04759 4.62466 2.72357 4.67489 2.39955 4.65802H2.40515H2.37875C2.06217 4.67366 1.74582 4.62261 1.44863 4.50791C1.15144 4.39322 0.879523 4.21725 0.649149 3.99052L0.649949 3.99136C0.436034 3.77636 0.267553 3.51722 0.155283 3.23052C0.0430131 2.94382 -0.0105744 2.63587 -0.00205141 2.32636V2.32969L-0.00285141 2.27219C-0.00285141 1.63719 0.256349 1.06552 0.669949 0.664689L0.671549 0.663856C1.15198 0.208069 1.78641 -0.0305011 2.43555 0.000522526H2.43075C2.74879 -0.0156699 3.06674 0.0346042 3.36584 0.148383C3.66495 0.262162 3.93917 0.437145 4.17235 0.663023L4.17075 0.661356C4.38227 0.873159 4.55048 1.12733 4.66528 1.4086C4.78008 1.68986 4.83908 1.9924 4.83875 2.29802V2.33302V2.33136V2.32969ZM20.0884 12.263V19.9997H15.7859V12.7789C15.8297 11.9865 15.6414 11.199 15.246 10.5205L15.2555 10.538C15.0695 10.2651 14.8187 10.047 14.5276 9.905C14.2366 9.76304 13.9152 9.70207 13.5947 9.72802H13.6012C13.1005 9.7094 12.6098 9.87721 12.2171 10.2014L12.2219 10.198C11.8594 10.5024 11.5756 10.8962 11.3963 11.3439L11.3899 11.363C11.2804 11.7212 11.2319 12.0966 11.2467 12.4722V12.4664V20.0014H6.94435C6.96195 16.3775 6.97075 13.4391 6.97075 11.1864C6.97075 8.93358 6.96648 7.58941 6.95795 7.15386L6.94515 6.49969H11.2475V8.46136H11.2211C11.3923 8.17386 11.5691 7.92469 11.7635 7.69136L11.7571 7.69886C11.9819 7.44136 12.2235 7.20886 12.4835 7.00052L12.4963 6.99052C12.8292 6.72445 13.2069 6.52548 13.6099 6.40386L13.6339 6.39802C14.1009 6.2561 14.5851 6.18481 15.0715 6.18636H15.1348H15.1316C15.8022 6.15693 16.4709 6.27963 17.0916 6.54596C17.7122 6.8123 18.2698 7.2159 18.726 7.72886L18.7283 7.73219C19.6361 8.7633 20.09 10.2733 20.09 12.2622L20.0884 12.263Z" fill="black"/>
</g>
<defs>
<clipPath id="clip0">
<rect width="20" height="20" fill="white"/>
</clipPath>
</defs>
</svg>
